<svg xmlns="http://www.w3.org/2000/svg" width="1920" height="1080" viewBox="0 0 1920 1080"><defs><linearGradient id="bg" x1="0" x2="1" y1="0" y2="1"><stop offset="0%" stop-color="#0b1220"/><stop offset="60%" stop-color="#0f172a"/><stop offset="100%" stop-color="#10233b"/></linearGradient><linearGradient id="wave" x1="0" x2="1" y1="0" y2="0"><stop offset="0%" stop-color="#38bdf8"/><stop offset="100%" stop-color="#22c55e"/></linearGradient><radialGradient id="glow" cx=".75" cy=".2" r=".8"><stop offset="0%" stop-color="#38bdf8" stop-opacity=".25"/><stop offset="100%" stop-color="#38bdf8" stop-opacity="0"/></radialGradient></defs><rect width="1920" height="1080" fill="url(#bg)"/><rect width="1920" height="1080" fill="url(#glow)"/><g fill="none" stroke="#38bdf8" stroke-linejoin="round" stroke-width="10" transform="translate(150,150)"><path d="M70 0 h60 v70 l85 150 a40 40 0 0 1 -35 60 h-160 a40 40 0 0 1 -35 -60 l85 -150 z"/><line x1="70" x2="130" y1="0" y2="0"/><path stroke="#22c55e" d="M55 190 h90"/></g><text x="150" y="470" fill="#e2e8f0" font-family="Helvetica, Arial, sans-serif" font-size="170" font-weight="700">Galen</text><text x="158" y="545" fill="#94a3b8" font-family="Helvetica, Arial, sans-serif" font-size="46" font-weight="400">The voice knowledge bank for pharmaceutical manufacturing</text><text x="158" y="620" fill="#38bdf8" font-family="Helvetica, Arial, sans-serif" font-size="34" font-weight="600">Capture the huddle · Extract the knowledge · Answer by voice</text><g fill="url(#wave)" transform="translate(150,760)"><rect width="14" height="40" x="0" y="80" rx="7"/><rect width="14" height="100" x="34" y="50" rx="7"/><rect width="14" height="180" x="68" y="10" rx="7"/><rect width="14" height="80" x="102" y="60" rx="7"/><rect width="14" height="150" x="136" y="25" rx="7"/><rect width="14" height="50" x="170" y="75" rx="7"/><rect width="14" height="130" x="204" y="35" rx="7"/><rect width="14" height="70" x="238" y="65" rx="7"/><rect width="14" height="200" x="272" y="0" rx="7"/><rect width="14" height="90" x="306" y="55" rx="7"/><rect width="14" height="140" x="340" y="30" rx="7"/><rect width="14" height="40" x="374" y="80" rx="7"/><rect width="14" height="110" x="408" y="45" rx="7"/><rect width="14" height="60" x="442" y="70" rx="7"/><rect width="14" height="160" x="476" y="20" rx="7"/><rect width="14" height="80" x="510" y="60" rx="7"/></g><g font-family="Helvetica, Arial, sans-serif" font-size="30"><rect width="360" height="60" x="150" y="1000" fill="#1e293b" stroke="#334155" stroke-width="2" rx="30"/><text x="182" y="1040" fill="#e2e8f0">AssemblyAI · Realtime STT</text><rect width="330" height="60" x="530" y="1000" fill="#1e293b" stroke="#334155" stroke-width="2" rx="30"/><text x="562" y="1040" fill="#e2e8f0">LLM Gateway · Cited</text><rect width="300" height="60" x="880" y="1000" fill="#1e293b" stroke="#334155" stroke-width="2" rx="30"/><text x="912" y="1040" fill="#e2e8f0">ICH Q10 §1.6.1</text></g><text x="1770" y="1040" fill="#64748b" font-family="Helvetica, Arial, sans-serif" font-size="28" text-anchor="end">Voice Agent Hackathon 2026</text></svg>